<svg width="35" height="35" viewBox="0 0 35 35" fill="none" xmlns="http://www.w3.org/2000/svg">
<g id="icon/image/style_24px">
<path id="icon/image/style_24px_2" fill-rule="evenodd" clip-rule="evenodd" d="M32.5097 22.8958L25.2764 5.43958C24.8243 4.34583 23.7597 3.67499 22.6368 3.64583C22.2576 3.64583 21.8639 3.70416 21.4847 3.86458L10.7368 8.31249C9.64302 8.76458 8.97219 9.81458 8.94302 10.9375C8.92844 11.3312 9.00135 11.725 9.16177 12.1042L16.3951 29.5604C16.8472 30.6687 17.9264 31.3396 19.0639 31.3542C19.443 31.3542 19.8222 31.2812 20.1868 31.1354L30.9201 26.6875C32.4076 26.075 33.1222 24.3687 32.5097 22.8958ZM4.07218 28.2917L6.02635 29.1083V15.9396L2.4826 24.4854C1.88468 25.9729 2.59927 27.6792 4.07218 28.2917ZM11.8597 10.9958L19.093 28.4375L29.8118 23.9896L22.593 6.56249H22.5785L11.8597 10.9958ZM16.4242 11.3021C15.6188 11.3021 14.9659 11.955 14.9659 12.7604C14.9659 13.5658 15.6188 14.2187 16.4242 14.2187C17.2296 14.2187 17.8826 13.5658 17.8826 12.7604C17.8826 11.955 17.2296 11.3021 16.4242 11.3021ZM11.8743 31.3542C10.2701 31.3542 8.95761 30.0417 8.95761 28.4375V19.1917L13.9889 31.3542H11.8743Z" fill="#4CBDC7"/>
</g>
</svg>
