<svg width="35" height="35" viewBox="0 0 35 35" fill="none" xmlns="http://www.w3.org/2000/svg">
<g id="icon/image/style_24px">
<path id="icon/image/style_24px_2" fill-rule="evenodd" clip-rule="evenodd" d="M32.5099 22.8958L25.2766 5.43956C24.8245 4.34581 23.7599 3.67498 22.637 3.64581C22.2578 3.64581 21.8641 3.70415 21.4849 3.86456L10.737 8.31248C9.64326 8.76456 8.97243 9.81456 8.94326 10.9375C8.92868 11.3312 9.0016 11.725 9.16201 12.1041L16.3953 29.5604C16.8474 30.6687 17.9266 31.3396 19.0641 31.3541C19.4433 31.3541 19.8224 31.2812 20.187 31.1354L30.9203 26.6875C32.4078 26.075 33.1224 24.3687 32.5099 22.8958ZM4.07243 28.2916L6.02659 29.1083V15.9396L2.48285 24.4854C1.88493 25.9729 2.59951 27.6791 4.07243 28.2916ZM11.8599 10.9958L19.0933 28.4375L29.812 23.9896L22.5933 6.56248H22.5787L11.8599 10.9958ZM16.4245 11.3021C15.6191 11.3021 14.9661 11.955 14.9661 12.7604C14.9661 13.5658 15.6191 14.2187 16.4245 14.2187C17.2299 14.2187 17.8828 13.5658 17.8828 12.7604C17.8828 11.955 17.2299 11.3021 16.4245 11.3021ZM11.8745 31.3541C10.2704 31.3541 8.95786 30.0416 8.95786 28.4375V19.1916L13.9891 31.3541H11.8745Z" fill="#FEFEFE"/>
</g>
</svg>
